<?xml version="1.0" encoding="UTF-8" standalone="no"?>
<svg xmlns="http://www.w3.org/2000/svg" viewBox="0 0 400 300">
  <!-- Background grid with sketchy lines -->
  <g stroke="#eee" stroke-width="0.5">
    <path d="M50,50 L350,50" stroke-dasharray="2,2"/>
    <path d="M50,100 L350,100" stroke-dasharray="2,2"/>
    <path d="M50,150 L350,150" stroke-dasharray="2,2"/>
    <path d="M50,200 L350,200" stroke-dasharray="2,2"/>
    <path d="M100,50 L100,250" stroke-dasharray="2,2"/>
    <path d="M200,50 L200,250" stroke-dasharray="2,2"/>
    <path d="M300,50 L300,250" stroke-dasharray="2,2"/>
  </g>

  <!-- Axes with hand-drawn effect -->
  <path d="M50,250 L350,250 M350,250 l-10,-5 M350,250 l-10,5"
        stroke="black"
        stroke-width="2"
        fill="none"
        stroke-linecap="round"
        style="stroke-dasharray: 1,0"/>

  <path d="M50,250 L50,50 M50,50 l-5,10 M50,50 l5,10"
        stroke="black"
        stroke-width="2"
        fill="none"
        stroke-linecap="round"
        style="stroke-dasharray: 1,0"/>

  <!-- Reference lines for workload levels with labels -->
  <path d="M50,220 L350,220" stroke="#ccc" stroke-width="1" stroke-dasharray="4,4"/>
  <text x="40" y="225" text-anchor="end" font-family="Arial" font-size="12">1x</text>

  <path d="M50,160 L350,160" stroke="#ccc" stroke-width="1" stroke-dasharray="4,4"/>
  <text x="40" y="165" text-anchor="end" font-family="Arial" font-size="12">2x</text>

  <path d="M50,100 L350,100" stroke="#ccc" stroke-width="1" stroke-dasharray="4,4"/>
  <text x="40" y="105" text-anchor="end" font-family="Arial" font-size="12">3x</text>

  <!-- Original increasing workload curve (blue) -->
  <path d="M50,220 C125,215 175,210 200,208 C250,205 300,160 350,100"
        stroke="blue"
        stroke-width="3"
        fill="none"
        stroke-linecap="round"
        style="stroke-dasharray: 1,0"/>

  <!-- Controlled workload line (green) with small variations -->
  <path d="M50,220 C75,215 100,225 125,220 C150,215 175,225 200,218 C225,222 250,216 275,223 C300,217 325,224 350,220"
        stroke="green"
        stroke-width="3"
        fill="none"
        stroke-linecap="round"
        style="stroke-dasharray: 1,0"/>

  <!-- Project halfway point marker -->
  <path d="M200,250 L200,240" stroke="#666" stroke-width="1"/>
  <text x="200" y="265" text-anchor="middle" font-family="Arial" font-size="12">50%</text>

  <!-- Labels -->
  <text x="190" y="280" text-anchor="middle" font-family="Arial" font-size="14">Project Progress</text>
  <text x="20" y="150" text-anchor="middle" font-family="Arial" font-size="14" transform="rotate(-90,20,150)">Team Workload</text>

  <!-- Legend with wider box -->
  <rect x="60" y="60" width="180" height="50" fill="white" stroke="#ccc" stroke-width="1"/>
  <path d="M70,75 L100,75" stroke="blue" stroke-width="3"/>
  <text x="110" y="80" font-family="Arial" font-size="12">Uncontrolled Workload</text>
  <path d="M70,95 L100,95" stroke="green" stroke-width="3"/>
  <text x="110" y="100" font-family="Arial" font-size="12">Controlled Workload</text>
</svg>